{"glyphs":{":":{"x_min":0,"x_max":306,"ha":306,"o":"m 153 -5 q 131 -5 116 10 q 101 25 101 48 q 101 68 117 83 q 132 99 153 99 q 174 99 189 84 q 205 68 205 48 q 205 25 190 10 q 175 -5 153 -5 z m 96 373 q 96 393 112 408 q 128 424 149 424 q 170 424 185 409 q 200 394 200 373 q 200 350 186 335 q 171 321 149 321 q 127 321 112 336 q 96 351 96 373 z"},"$":{"x_min":0,"x_max":556,"ha":556,"o":"m 265 403 l 265 677 q 205 669 172 634 q 139 598 139 541 q 139 486 169 454 q 198 421 265 403 z m 284 23 q 347 30 382 68 q 417 105 417 164 q 417 225 386 260 q 355 294 284 315 z m 252 -8 q 162 -3 103 47 q 43 97 43 164 q 43 191 53 208 q 64 224 81 224 q 98 224 107 211 q 116 197 116 173 q 116 156 112 142 q 107 128 97 115 q 113 73 154 49 q 194 24 252 22 l 252 327 q 156 352 110 401 q 63 449 63 524 q 63 604 116 653 q 169 701 265 708 l 265 757 l 297 757 l 297 707 q 377 698 425 663 q 473 628 473 578 q 473 554 463 540 q 454 526 438 526 q 421 526 412 540 q 402 555 402 579 q 402 594 405 607 q 407 620 413 632 q 395 650 366 661 q 337 673 297 678 l 297 392 q 402 358 448 310 q 495 261 495 186 q 495 104 440 53 q 385 2 284 -9 l 284 -100 l 252 -100 z"},"?":{"x_min":0,"x_max":502,"ha":502,"o":"m 201 -5 q 179 -5 164 10 q 149 25 149 48 q 149 68 165 83 q 181 99 201 99 q 222 99 237 84 q 252 68 252 48 q 252 25 238 10 q 223 -5 201 -5 z m 186 166 q 186 172 185 179 q 185 187 185 201 q 185 249 197 283 q 208 316 235 347 q 238 350 265 375 q 292 400 308 423 q 325 447 333 477 q 341 507 341 545 q 341 619 310 660 q 278 700 221 700 q 188 700 161 680 q 135 660 129 630 q 142 619 148 603 q 155 587 155 567 q 155 551 147 542 q 139 532 126 532 q 110 532 99 548 q 87 563 87 586 q 87 646 132 687 q 177 727 246 727 q 322 727 371 678 q 420 629 420 553 q 420 511 409 479 q 398 446 376 419 q 354 393 310 357 q 266 321 251 304 q 232 282 223 251 q 215 221 215 176 l 215 166 z"},"<":{"x_min":0,"x_max":833,"ha":833,"o":"m 704 559 l 704 497 l 216 298 l 704 100 l 704 37 l 129 273 l 129 323 z"},"'":{"x_min":0,"x_max":170,"ha":170,"o":"m 93 422 l 77 422 l 45 645 q 44 649 44 653 q 44 657 44 664 q 44 688 54 701 q 65 714 85 714 q 105 714 116 701 q 127 688 127 665 q 127 661 125 648 q 125 646 125 645 z"},"=":{"x_min":0,"x_max":833,"ha":833,"o":"m 124 233 l 709 233 l 709 176 l 124 176 z m 124 420 l 709 420 l 709 363 l 124 363 z"},"a":{"x_min":0,"x_max":500,"ha":500,"o":"m 306 236 q 176 209 142 185 q 109 162 109 115 q 109 78 129 56 q 150 34 184 34 q 219 34 248 53 q 277 72 303 111 z m 302 67 q 263 27 225 9 q 187 -10 145 -10 q 92 -10 63 19 q 33 47 33 99 q 33 146 57 176 q 81 205 133 221 q 157 229 246 250 q 285 259 307 264 l 308 313 l 308 329 q 308 401 289 429 q 270 457 224 457 q 195 457 172 449 q 148 441 128 424 q 128 420 129 413 q 132 390 132 381 q 132 354 119 337 q 107 321 87 321 q 74 321 66 331 q 58 341 58 358 q 58 406 111 446 q 163 486 232 486 q 313 486 350 448 q 387 409 387 323 l 387 311 l 383 152 q 383 144 382 130 q 382 117 382 111 q 382 70 391 57 q 400 43 424 43 q 439 43 451 50 q 462 57 470 72 l 487 62 q 470 26 444 9 q 418 -9 383 -9 q 347 -9 326 11 q 305 30 302 67 z"},"L":{"x_min":0,"x_max":620,"ha":620,"o":"m 329 685 l 310 685 q 259 685 245 672 q 231 659 231 604 l 231 32 l 400 32 q 504 32 542 73 q 580 114 581 225 l 611 225 q 608 169 606 113 q 604 56 603 0 l 58 0 l 58 32 l 65 32 q 111 32 125 46 q 139 60 139 114 l 139 604 q 139 659 125 672 q 112 685 65 685 l 58 685 l 58 718 q 88 716 121 715 q 154 714 192 714 q 230 714 264 715 q 298 716 329 718 z"},"3":{"x_min":0,"x_max":556,"ha":556,"o":"m 194 372 q 284 375 333 417 q 381 460 381 538 q 381 603 345 640 q 309 678 248 678 q 211 678 182 666 q 152 654 133 631 q 135 621 136 612 q 137 602 137 594 q 137 563 126 546 q 114 528 95 528 q 80 528 73 538 q 65 549 65 569 q 65 624 122 666 q 179 708 259 708 q 349 708 404 659 q 460 611 460 533 q 460 463 414 420 q 367 376 278 362 q 388 356 442 312 q 497 268 497 186 q 497 100 430 46 q 363 -9 256 -9 q 160 -9 101 33 q 41 76 41 140 q 41 162 51 175 q 61 189 76 189 q 95 189 106 172 q 118 155 118 126 q 118 114 116 102 q 115 91 111 79 q 128 51 165 36 q 202 20 249 20 q 325 20 367 64 q 409 108 409 187 q 409 264 366 301 q 323 338 234 338 q 222 338 197 336 l 194 336 z"},";":{"x_min":0,"x_max":306,"ha":306,"o":"m 90 373 q 90 393 106 408 q 122 424 143 424 q 164 424 179 409 q 194 394 194 373 q 194 350 179 335 q 165 321 143 321 q 121 321 105 336 q 90 351 90 373 z m 87 -141 q 123 -110 140 -79 q 158 -47 158 -14 q 158 -7 158 -4 q 158 0 157 3 q 150 1 144 1 q 139 0 134 0 q 112 0 98 14 q 85 28 85 51 q 85 75 99 90 q 113 105 136 105 q 166 105 185 80 q 203 56 203 15 q 203 -31 177 -76 q 152 -122 104 -161 z"},"J":{"x_min":0,"x_max":410,"ha":410,"o":"m 188 604 q 188 658 172 672 q 156 685 96 685 l 84 685 l 84 718 q 115 716 149 715 q 183 714 221 714 q 260 714 293 715 q 327 716 357 718 l 357 685 q 309 685 295 672 q 281 658 281 604 l 281 118 q 281 49 274 16 q 267 -18 250 -44 q 224 -84 184 -105 q 144 -126 95 -126 q 39 -126 3 -95 q -32 -64 -32 -15 q -32 13 -20 29 q -7 46 13 46 q 34 46 47 31 q 60 17 60 -6 q 60 -26 52 -41 q 45 -56 31 -66 q 41 -80 56 -86 q 71 -93 94 -93 q 144 -93 167 -59 q 190 -26 190 48 q 190 64 189 100 q 188 137 188 157 z"},"V":{"x_min":0,"x_max":632,"ha":632,"o":"m 317 -9 l 82 618 q 81 621 79 625 q 57 685 0 685 l 0 718 q 28 716 58 715 q 88 714 123 714 q 158 714 189 715 q 219 716 247 718 l 247 685 q 210 685 195 678 q 179 671 179 655 q 179 646 182 632 q 186 619 192 600 l 354 146 l 505 600 q 509 612 511 625 q 513 637 513 647 q 513 667 499 676 q 484 685 451 685 l 445 685 l 445 718 q 467 716 490 715 q 513 714 539 714 q 565 714 587 715 q 610 716 630 718 l 630 685 q 596 682 582 673 q 568 665 561 644 l 332 -9 z"},"\"":{"x_min":0,"x_max":331,"ha":331,"o":"m 253 422 l 238 422 l 206 645 q 206 646 206 648 q 204 659 204 664 q 204 688 215 701 q 226 714 246 714 q 266 714 276 701 q 287 688 287 665 q 287 658 287 654 q 287 649 286 645 z m 93 422 l 77 422 l 46 645 q 45 653 44 658 q 44 662 44 665 q 44 688 55 701 q 65 714 85 714 q 105 714 116 701 q 127 688 127 665 q 127 661 125 648 q 125 646 125 645 z"},"7":{"x_min":0,"x_max":556,"ha":556,"o":"m 457 632 l 218 632 q 133 632 115 615 q 97 599 97 546 l 97 526 l 67 526 q 67 562 66 624 q 64 687 64 708 q 108 705 158 703 q 208 701 275 701 l 325 701 q 416 701 493 706 q 502 706 504 706 q 509 706 514 701 q 518 695 518 690 q 518 684 514 674 q 511 665 503 650 l 409 471 q 333 326 309 252 q 285 179 285 113 q 285 92 286 67 q 287 42 287 39 q 287 16 262 -4 q 237 -25 218 -25 q 208 -25 204 -13 q 200 -2 200 41 q 200 104 218 167 q 236 230 274 298 z"},"S":{"x_min":0,"x_max":611,"ha":611,"o":"m 80 19 l 80 25 q 82 99 82 135 q 82 155 82 179 q 81 203 80 246 l 109 246 q 112 143 165 83 q 217 23 305 23 q 372 23 412 59 q 451 95 451 155 q 451 189 442 213 q 433 236 413 251 q 379 278 295 310 q 283 314 277 317 q 270 320 256 325 q 168 358 128 395 q 104 417 91 449 q 79 480 79 520 q 79 613 139 670 q 199 727 298 727 q 352 727 397 712 q 443 698 485 667 l 493 704 l 515 704 q 514 681 513 657 q 512 632 512 607 q 512 582 513 557 q 514 532 515 506 l 491 506 q 481 600 436 646 q 390 693 308 693 q 243 693 203 656 q 164 618 164 557 q 164 510 191 479 q 217 447 276 424 q 304 413 351 396 q 420 370 438 358 q 495 322 519 284 q 543 246 543 193 q 543 104 477 48 q 410 -9 304 -9 q 247 -9 201 9 q 156 26 114 64 l 103 19 z"},"}":{"x_min":0,"x_max":500,"ha":500,"o":"m 87 740 l 92 740 q 197 740 237 704 q 277 668 277 571 l 277 467 q 277 390 305 361 q 333 333 414 325 l 414 296 q 334 290 306 260 q 277 231 277 154 l 277 50 q 277 -47 237 -83 q 197 -119 92 -119 l 87 -119 l 87 -94 q 157 -93 182 -68 q 207 -42 207 34 l 207 104 q 207 214 237 255 q 267 295 347 310 q 267 325 237 365 q 207 406 207 516 l 207 586 q 207 662 182 688 q 156 714 87 715 z"},"Z":{"x_min":0,"x_max":648,"ha":648,"o":"m 173 32 l 414 32 q 479 32 509 41 q 539 49 553 69 q 568 90 576 123 q 584 156 588 212 l 615 212 l 606 0 l 44 0 l 44 10 l 462 685 l 246 685 q 178 685 149 678 q 120 670 105 653 q 90 635 82 607 q 74 579 71 531 l 44 531 l 53 718 l 591 718 l 591 707 z"},"x":{"x_min":0,"x_max":509,"ha":509,"o":"m 267 293 l 350 403 q 355 410 358 416 q 360 422 360 428 q 360 438 352 442 q 344 446 315 449 l 316 477 q 335 476 354 475 q 374 474 394 474 q 414 474 434 475 q 454 476 473 477 l 474 449 l 466 449 q 443 449 421 435 q 399 421 373 387 l 280 271 l 424 71 q 442 47 457 39 q 472 30 496 28 l 495 0 q 471 1 446 2 q 420 3 394 3 q 367 3 340 2 q 313 1 286 0 l 286 28 l 293 28 q 312 28 322 34 q 332 40 332 50 q 332 57 328 66 q 325 76 320 83 l 225 214 l 119 84 q 112 77 109 68 q 105 59 105 51 q 105 40 119 34 q 133 29 162 28 l 162 0 l 159 0 q 102 2 74 2 q 58 2 39 1 q 21 1 -12 0 l -12 28 q 12 29 30 37 q 47 45 64 65 l 208 234 l 88 406 q 72 430 56 439 q 39 448 12 449 l 12 477 q 37 476 62 475 q 88 474 115 474 q 141 474 167 475 q 192 476 217 477 l 217 449 q 201 449 191 443 q 182 437 182 427 q 182 419 185 410 q 188 402 193 394 z"},")":{"x_min":0,"x_max":403,"ha":403,"o":"m 3 -200 q 123 -117 182 -9 q 241 99 241 235 q 241 375 182 497 q 124 619 5 725 l 17 741 q 165 629 235 508 q 306 387 306 247 q 306 101 231 -17 q 156 -135 12 -216 z"},"&":{"x_min":0,"x_max":718,"ha":718,"o":"m 272 435 q 321 460 342 491 q 363 521 363 567 q 363 627 336 662 q 310 697 265 697 q 223 697 196 667 q 169 637 169 589 q 169 536 196 496 q 222 457 272 435 z m 428 122 q 369 254 326 307 q 283 359 225 379 q 178 353 153 310 q 129 266 129 209 q 129 131 171 86 q 212 41 284 41 q 326 41 362 61 q 398 81 428 122 z m 443 87 q 400 39 350 15 q 300 -9 240 -9 q 152 -9 99 44 q 46 96 46 183 q 46 252 85 307 q 124 361 197 395 q 147 426 123 467 q 99 507 99 557 q 99 631 151 679 q 202 728 281 728 q 347 728 388 689 q 429 650 429 588 q 429 530 397 489 q 365 447 300 420 q 351 398 393 347 q 435 296 480 200 q 505 242 519 281 q 532 321 532 349 q 532 376 514 388 q 496 399 450 399 l 450 429 q 475 427 501 426 q 527 425 558 425 q 589 425 616 426 q 643 427 668 429 l 668 399 q 624 399 602 389 q 581 380 574 358 q 573 354 570 343 q 550 249 499 165 q 525 112 556 83 q 587 55 619 55 q 648 55 670 75 q 691 95 705 134 l 728 126 q 707 58 670 24 q 633 -9 579 -9 q 536 -9 502 15 q 467 40 443 87 z"},"_":{"x_min":0,"x_max":500,"ha":500,"o":"m 0 -178 l 500 -178 l 500 -236 l 0 -236 z"},"v":{"x_min":0,"x_max":468,"ha":468,"o":"m 215 -9 l 54 404 q 53 406 52 409 q 37 449 1 449 l -6 449 l -6 477 q 18 475 43 474 q 68 473 98 473 q 127 473 153 474 q 179 475 202 477 l 202 449 q 160 446 150 441 q 140 437 140 425 q 140 418 142 411 q 143 403 146 394 l 255 96 l 370 394 q 373 403 375 411 q 376 419 376 425 q 376 437 366 441 q 356 446 316 449 l 316 477 q 333 475 352 474 q 371 473 392 473 q 413 473 431 474 q 450 475 466 477 l 466 449 l 463 449 q 425 449 403 398 l 403 397 l 239 -9 z"},"O":{"x_min":0,"x_max":771,"ha":771,"o":"m 383 22 q 492 22 556 113 q 621 204 621 359 q 621 513 558 604 q 494 695 388 695 q 279 695 214 604 q 150 514 150 359 q 150 204 213 113 q 277 22 383 22 z m 382 -9 q 309 -9 250 14 q 191 38 145 84 q 96 133 71 200 q 46 268 46 351 q 46 412 59 466 q 72 519 98 563 q 144 640 220 684 q 297 727 389 727 q 542 727 634 627 q 725 528 725 359 q 725 274 697 203 q 668 132 614 81 q 566 37 508 14 q 449 -9 382 -9 z"},"(":{"x_min":0,"x_max":403,"ha":403,"o":"m 399 725 q 279 642 220 534 q 161 426 161 291 q 161 150 220 28 q 278 -94 397 -200 l 385 -216 q 238 -104 167 18 q 96 139 96 278 q 96 424 171 542 q 247 661 390 741 z"},"C":{"x_min":0,"x_max":708,"ha":708,"o":"m 651 184 q 623 89 555 40 q 488 -9 383 -9 q 311 -9 252 14 q 192 37 148 82 q 97 134 72 203 q 46 271 46 355 q 46 411 58 461 q 69 512 92 555 q 137 639 212 683 q 287 727 383 727 q 452 727 509 702 q 567 677 610 629 l 621 679 l 645 679 q 643 651 642 620 q 641 589 641 553 q 641 536 641 515 q 642 495 643 456 l 618 456 q 607 568 546 632 q 485 695 387 695 q 275 695 214 610 q 153 525 153 369 q 153 209 220 120 q 288 31 409 31 q 488 31 544 73 q 600 114 627 194 z"},"W":{"x_min":0,"x_max":990,"ha":990,"o":"m 500 516 l 317 -9 l 302 -9 l 88 618 q 73 662 58 673 q 42 685 10 685 l 6 685 l 6 718 q 34 716 63 715 q 93 714 128 714 q 163 714 194 715 q 225 716 252 718 l 252 685 q 215 685 200 678 q 185 671 185 655 q 185 643 196 607 q 197 602 198 600 l 338 146 l 481 572 l 465 618 q 450 662 435 673 q 419 685 387 685 l 383 685 l 383 718 q 411 716 441 715 q 471 714 505 714 q 540 714 571 715 q 602 716 629 718 l 629 685 q 592 685 577 678 q 562 671 562 655 q 562 643 573 607 q 574 603 575 600 l 716 146 l 867 600 q 871 612 873 625 q 875 637 875 647 q 875 667 861 676 q 846 685 813 685 l 807 685 l 807 718 q 829 716 852 715 q 875 714 900 714 q 926 714 948 715 q 971 716 991 718 l 991 685 q 957 682 943 673 q 930 665 922 644 l 694 -9 l 679 -9 z"},"A":{"x_min":0,"x_max":625,"ha":625,"o":"m 177 299 l 374 299 l 279 581 z m -13 0 l -13 32 l -5 32 q 22 32 36 43 q 50 54 62 87 l 298 727 l 319 727 l 550 87 q 562 55 576 43 q 590 32 617 32 l 625 32 l 625 0 q 590 2 560 4 q 530 5 502 5 q 474 5 443 4 q 412 2 377 0 l 377 32 l 382 32 q 415 32 430 42 q 445 52 445 74 q 445 82 444 89 q 443 95 442 100 l 386 266 l 168 266 l 129 157 q 116 120 112 104 q 108 88 108 76 q 108 52 120 43 q 132 34 164 32 l 164 0 q 139 2 117 4 q 95 5 75 5 q 55 5 33 4 q 12 2 -13 0 z"},"f":{"x_min":0,"x_max":319,"ha":319,"o":"m 181 95 q 181 48 195 38 q 209 29 289 28 l 289 0 q 248 2 212 4 q 177 5 145 5 q 113 5 80 4 q 46 2 8 0 l 8 28 q 76 31 89 41 q 102 51 102 95 l 102 431 l 10 431 l 10 458 l 102 458 l 102 518 q 102 627 146 685 q 189 743 272 743 q 324 743 358 716 q 392 689 392 649 q 392 626 382 614 q 372 601 353 601 q 336 601 326 612 q 316 622 316 640 q 316 654 321 666 q 326 678 336 690 q 325 703 310 709 q 294 716 274 716 q 225 716 203 679 q 181 642 181 558 l 181 458 l 321 458 l 321 431 l 181 431 z"},"Q":{"x_min":0,"x_max":771,"ha":771,"o":"m 241 79 q 271 50 305 36 q 340 22 381 22 q 396 22 412 25 q 428 28 445 34 q 438 90 414 116 q 391 142 348 142 q 315 142 288 126 q 260 110 241 79 z m 521 73 q 569 117 595 190 q 621 264 621 359 q 621 514 558 604 q 495 695 388 695 q 279 695 214 604 q 150 514 150 359 q 150 271 168 208 q 187 144 225 99 q 254 140 292 159 q 329 179 377 179 q 430 179 465 153 q 500 127 521 73 z m 530 24 q 535 -34 556 -61 q 577 -89 615 -89 q 647 -89 669 -69 q 690 -49 702 -7 l 724 -15 q 712 -77 677 -108 q 642 -138 582 -138 q 520 -138 487 -104 q 454 -70 449 -1 q 430 -5 412 -8 q 395 -10 379 -10 q 231 -10 138 90 q 46 189 46 351 q 46 412 59 466 q 72 519 98 563 q 144 640 220 684 q 297 727 389 727 q 461 727 520 704 q 579 681 625 634 q 676 583 700 515 q 725 447 725 359 q 725 245 675 159 q 625 73 530 24 z"},"w":{"x_min":0,"x_max":719,"ha":719,"o":"m 487 477 l 487 449 l 484 449 q 441 442 441 425 q 441 417 442 410 q 443 402 445 394 l 528 104 l 627 394 q 630 403 631 411 q 633 419 633 425 q 633 436 625 441 q 617 445 583 449 l 583 477 q 599 475 615 474 q 632 473 652 473 q 672 473 689 474 q 707 475 723 477 l 723 449 l 720 449 q 697 449 685 439 q 672 430 660 397 l 512 -9 l 488 -9 l 369 383 l 223 -9 l 199 -9 l 62 404 q 53 432 42 441 q 32 449 10 449 l 2 449 l 2 477 q 24 475 48 474 q 72 473 100 473 q 128 473 152 474 q 177 475 199 477 l 199 449 q 166 447 155 441 q 145 435 145 418 q 145 408 146 403 q 146 398 148 394 l 241 110 l 343 394 q 346 402 348 411 q 350 419 350 425 q 350 436 342 441 q 334 445 300 449 l 300 477 q 321 475 344 474 q 367 473 393 473 q 419 473 443 474 q 466 475 487 477 z"},"-":{"x_min":0,"x_max":345,"ha":345,"o":"m 46 214 l 46 274 l 289 274 l 289 214 z"},"E":{"x_min":0,"x_max":687,"ha":687,"o":"m 58 0 l 58 32 l 65 32 q 111 32 125 46 q 139 60 139 114 l 139 604 q 139 659 125 672 q 112 685 65 685 l 58 685 l 58 718 l 590 718 l 590 675 q 590 638 592 548 q 592 538 592 533 l 567 533 q 566 620 529 652 q 491 685 386 685 l 231 685 l 231 395 l 309 395 q 379 395 398 416 q 417 437 420 508 l 444 508 q 442 473 442 437 q 441 402 441 367 q 441 332 442 297 q 442 263 444 228 l 420 228 q 417 314 398 339 q 379 363 309 363 l 231 363 l 231 32 l 429 32 q 534 32 572 69 q 609 105 610 204 l 635 204 q 632 160 630 111 q 628 62 627 0 z"},"s":{"x_min":0,"x_max":417,"ha":417,"o":"m 44 0 q 45 31 46 63 q 47 95 47 127 l 47 169 l 72 169 q 76 94 110 56 q 145 19 211 19 q 259 19 286 42 q 312 64 312 106 q 312 167 189 204 l 180 207 q 94 233 66 261 q 39 290 39 341 q 39 407 82 447 q 125 486 198 486 q 236 486 267 475 q 298 465 323 444 l 331 472 l 353 472 q 352 442 351 428 q 351 414 351 401 q 351 388 352 374 q 352 359 353 333 l 329 333 q 321 395 288 426 q 254 458 197 458 q 156 458 131 436 q 106 414 106 377 q 106 320 225 284 l 234 281 q 319 254 350 223 q 382 192 382 140 q 382 72 334 32 q 287 -9 206 -9 q 168 -9 135 1 q 103 11 74 32 l 68 0 z"},">":{"x_min":0,"x_max":833,"ha":833,"o":"m 129 559 l 704 323 l 704 273 l 129 37 l 129 100 l 617 298 l 129 497 z"},"l":{"x_min":0,"x_max":275,"ha":275,"o":"m 172 95 q 172 48 185 39 q 198 29 252 28 l 252 0 q 217 2 188 4 q 158 5 131 5 q 104 5 75 4 q 46 2 13 0 l 13 28 q 68 32 81 42 q 93 51 93 95 l 93 638 q 93 677 80 688 q 66 699 19 699 l 7 699 l 7 727 q 49 729 90 733 q 131 737 172 743 z"},"8":{"x_min":0,"x_max":556,"ha":556,"o":"m 318 378 q 363 401 385 440 q 408 479 408 532 q 408 598 374 638 q 339 678 284 678 q 224 678 187 640 q 150 603 150 542 q 150 484 188 447 q 226 410 318 378 z m 227 338 q 173 315 145 272 q 116 229 116 172 q 116 104 159 63 q 202 21 271 21 q 338 21 380 62 q 422 103 422 167 q 422 229 382 266 q 342 302 227 338 z m 197 353 q 134 378 105 417 q 76 457 76 518 q 76 604 131 656 q 187 708 278 708 q 363 708 418 659 q 473 611 473 536 q 473 480 442 437 q 410 394 348 365 q 429 341 468 298 q 507 255 507 191 q 507 100 443 45 q 379 -9 272 -9 q 171 -9 109 42 q 47 93 47 176 q 47 239 84 282 q 121 326 197 353 z"},"\\":{"x_min":0,"x_max":296,"ha":296,"o":"m 309 -93 l 259 -93 l -39 727 l 11 727 z"},"e":{"x_min":0,"x_max":505,"ha":505,"o":"m 128 285 l 381 295 l 381 303 q 381 381 352 422 q 324 462 268 462 q 204 462 168 416 q 132 370 128 285 z m 128 258 l 128 236 q 128 138 167 88 q 207 38 285 38 q 338 38 377 65 q 417 92 436 142 l 457 134 q 436 63 384 25 q 331 -12 252 -12 q 151 -12 95 52 q 39 116 39 231 q 39 349 100 419 q 161 489 264 489 q 355 489 406 435 q 457 382 457 286 q 457 283 457 276 q 456 270 456 266 z"},"b":{"x_min":0,"x_max":521,"ha":521,"o":"m 63 638 q 63 677 50 688 q 37 698 -9 699 l -9 727 q 34 730 71 734 q 108 738 142 743 l 142 401 q 169 443 208 464 q 246 486 294 486 q 378 486 430 421 q 482 356 482 250 q 482 131 423 61 q 363 -9 263 -9 q 223 -9 190 3 q 157 14 127 39 l 81 -9 l 63 -9 z m 142 344 l 142 78 q 161 52 191 37 q 221 23 256 23 q 325 23 360 80 q 394 137 394 253 q 394 348 363 400 q 331 451 273 451 q 234 451 202 425 q 170 399 142 344 z"},"%":{"x_min":0,"x_max":847,"ha":847,"o":"m 536 96 q 536 63 555 44 q 573 26 606 26 q 631 26 657 41 q 683 55 709 84 q 747 127 766 174 q 786 221 786 268 q 786 309 768 331 q 750 353 717 353 q 696 353 672 339 q 649 326 629 301 q 589 251 562 191 q 536 131 536 96 z m 592 0 q 538 0 505 35 q 472 70 472 128 q 472 164 486 200 q 500 237 527 274 q 567 329 610 356 q 654 383 700 383 q 750 383 781 351 q 812 319 812 267 q 812 228 798 187 q 785 146 759 107 q 726 58 681 29 q 636 0 592 0 z m 341 628 q 335 632 325 638 q 287 662 281 669 l 279 669 q 252 669 227 651 q 202 633 174 593 q 138 541 117 493 q 97 445 97 412 q 97 379 115 361 q 133 342 165 342 q 193 342 219 355 q 244 368 269 394 q 306 434 327 486 q 348 538 348 587 q 348 597 346 607 q 345 617 341 628 z m 163 -19 l 596 649 q 561 627 527 616 q 494 606 458 606 q 435 606 412 610 q 390 613 369 620 q 369 618 370 615 q 373 592 373 583 q 373 546 361 506 q 348 466 325 428 q 292 374 247 345 q 202 316 152 316 q 98 316 66 349 q 33 382 33 436 q 33 478 50 521 q 67 565 99 605 q 135 650 177 674 q 218 698 262 698 q 291 698 313 687 q 336 675 354 652 q 379 639 404 632 q 429 625 454 625 q 510 625 559 650 q 607 675 644 722 l 687 722 l 206 -19 z"},"m":{"x_min":0,"x_max":883,"ha":883,"o":"m 176 95 q 176 50 187 41 q 197 31 236 28 l 236 0 q 207 2 180 4 q 153 5 128 5 q 104 5 76 4 q 49 2 17 0 l 17 28 q 73 32 86 42 q 98 52 98 95 l 98 381 q 98 421 84 432 q 71 442 15 442 l 15 470 q 55 472 94 476 q 133 480 174 486 l 174 372 q 205 429 247 458 q 288 486 341 486 q 402 486 438 456 q 474 427 480 372 q 511 429 553 458 q 594 486 647 486 q 722 486 755 445 q 787 405 787 307 l 787 95 q 787 49 798 40 q 809 31 847 28 l 847 0 q 818 2 791 4 q 764 5 739 5 q 714 5 687 4 q 660 2 629 0 l 629 28 q 684 32 696 41 q 708 51 708 95 l 708 319 q 708 389 689 420 q 670 451 628 451 q 574 451 528 399 q 482 348 482 287 l 482 95 q 482 49 493 40 q 504 31 542 28 l 542 0 q 513 2 486 4 q 459 5 434 5 q 409 5 382 4 q 355 2 324 0 l 324 28 q 379 32 391 41 q 403 51 403 95 l 403 319 q 403 388 384 420 q 364 451 322 451 q 268 451 222 399 q 176 348 176 287 z"},"#":{"x_min":0,"x_max":769,"ha":769,"o":"m 342 424 l 293 284 l 434 284 l 484 424 z m 380 711 l 445 711 l 363 481 l 503 481 l 585 711 l 649 711 l 568 481 l 718 481 l 698 424 l 547 424 l 498 284 l 660 284 l 639 228 l 478 228 l 397 -1 l 332 -1 l 413 228 l 273 228 l 192 -1 l 128 -1 l 209 228 l 51 228 l 72 284 l 229 284 l 278 424 l 108 424 l 129 481 l 299 481 z"},",":{"x_min":0,"x_max":278,"ha":278,"o":"m 75 -141 q 111 -110 129 -79 q 147 -47 147 -14 q 147 -7 147 -3 q 146 0 146 3 q 139 1 134 1 q 128 0 123 0 q 101 0 87 14 q 73 28 73 51 q 73 75 88 90 q 102 105 125 105 q 155 105 173 80 q 192 56 192 15 q 192 -31 167 -76 q 141 -122 93 -161 z"},"n":{"x_min":0,"x_max":606,"ha":606,"o":"m 505 95 q 505 49 515 40 q 526 31 564 28 l 564 0 q 535 2 508 4 q 482 5 457 5 q 432 5 406 4 q 379 2 346 0 l 346 28 q 401 32 414 42 q 426 51 426 95 l 426 319 q 426 388 405 420 q 383 451 337 451 q 275 451 226 399 q 176 348 176 287 l 176 95 q 176 50 187 41 q 197 31 236 28 l 236 0 q 207 2 180 4 q 153 5 128 5 q 104 5 76 4 q 49 2 17 0 l 17 28 q 73 32 86 42 q 98 52 98 95 l 98 381 q 98 421 84 432 q 71 442 15 442 l 15 470 q 55 472 94 476 q 133 480 174 486 l 174 372 q 207 429 252 457 q 297 486 354 486 q 436 486 470 445 q 505 405 505 307 z"},"h":{"x_min":0,"x_max":602,"ha":602,"o":"m 500 95 q 500 50 510 41 q 521 31 560 28 l 560 0 q 531 2 504 4 q 478 5 452 5 q 428 5 400 4 q 373 2 341 0 l 341 28 q 396 32 409 42 q 421 51 421 95 l 421 319 q 421 389 400 420 q 379 451 333 451 q 271 451 222 399 q 172 348 172 287 l 172 95 q 172 49 182 40 q 193 31 231 28 l 231 0 q 202 2 175 4 q 149 5 124 5 q 99 5 73 4 q 46 2 13 0 l 13 28 q 68 32 81 42 q 93 51 93 95 l 93 638 q 93 677 80 688 q 67 699 21 699 l 21 727 q 64 730 101 734 q 138 738 172 743 l 172 375 q 205 431 249 458 q 293 486 349 486 q 431 486 465 445 q 500 405 500 307 z"},"z":{"x_min":0,"x_max":456,"ha":456,"o":"m 304 449 l 195 449 q 113 449 87 429 q 61 410 57 355 l 36 355 l 36 477 l 411 477 l 411 466 l 125 28 l 255 28 q 342 28 367 51 q 392 74 392 141 l 414 141 l 414 0 l 17 0 l 17 10 z"},"B":{"x_min":0,"x_max":664,"ha":664,"o":"m 231 32 l 303 32 q 413 32 456 68 q 499 104 499 192 q 499 277 452 314 q 405 351 296 351 l 231 351 z m 231 383 l 320 383 q 403 383 442 419 q 480 455 480 533 q 480 617 443 651 q 406 685 307 685 l 231 685 z m 58 0 l 58 32 l 65 32 q 111 32 125 46 q 139 60 139 114 l 139 604 q 139 659 125 672 q 112 685 65 685 l 58 685 l 58 718 l 325 718 q 449 718 509 674 q 569 630 569 539 q 569 469 528 426 q 487 383 407 367 q 504 348 551 305 q 598 261 598 190 q 598 139 579 100 q 560 62 521 36 q 491 17 444 8 q 396 0 298 0 z"},"K":{"x_min":0,"x_max":664,"ha":664,"o":"m 231 348 q 275 374 322 425 q 369 476 446 586 q 469 619 479 637 q 489 656 489 666 q 489 679 479 684 q 470 689 435 690 l 435 718 q 459 716 485 715 q 511 714 541 714 q 571 714 597 715 q 623 716 646 718 l 646 690 q 614 688 595 682 q 577 676 562 662 q 552 653 480 565 q 408 478 341 402 l 570 93 q 593 61 618 47 q 643 32 674 32 l 677 32 l 677 0 q 644 2 614 4 q 583 5 556 5 q 528 5 499 4 q 469 2 435 0 l 435 32 q 457 32 467 38 q 477 43 477 55 q 477 67 461 87 l 461 88 l 279 343 l 231 308 l 231 114 q 231 60 245 46 q 259 32 305 32 l 312 32 l 312 0 q 278 2 247 4 q 216 5 187 5 q 158 5 127 4 q 96 2 58 0 l 58 32 l 65 32 q 111 32 125 46 q 139 60 139 114 l 139 604 q 139 659 125 672 q 112 685 65 685 l 58 685 l 58 718 q 86 716 117 715 q 148 714 184 714 q 220 714 251 715 q 283 716 312 718 l 312 685 l 305 685 q 258 685 245 671 q 231 657 231 604 z"},"R":{"x_min":0,"x_max":687,"ha":687,"o":"m 231 342 l 231 114 q 231 60 245 46 q 259 32 305 32 l 312 32 l 312 0 q 278 2 247 4 q 216 5 187 5 q 158 5 127 4 q 96 2 58 0 l 58 32 l 65 32 q 111 32 125 46 q 139 60 139 114 l 139 604 q 139 659 125 672 q 112 685 65 685 l 58 685 l 58 718 l 280 718 q 444 718 510 676 q 575 634 575 533 q 575 453 523 411 q 471 370 359 361 q 457 348 500 311 q 544 275 556 195 q 559 173 561 128 q 562 83 570 67 q 576 54 586 48 q 597 41 610 41 q 632 41 645 55 q 658 69 663 97 l 684 92 q 678 42 651 17 q 623 -9 576 -9 q 520 -9 494 21 q 468 51 468 117 q 468 128 469 146 q 470 164 470 170 q 470 273 434 308 q 397 342 292 342 z m 231 685 l 231 378 q 249 376 264 376 q 280 375 295 375 q 392 375 436 414 q 481 452 481 535 q 481 616 437 652 q 393 688 295 688 q 280 688 264 687 q 248 687 231 685 z"},"T":{"x_min":0,"x_max":667,"ha":667,"o":"m 380 114 q 380 60 394 46 q 409 32 458 32 l 475 32 l 475 0 q 437 2 402 4 q 367 5 335 5 q 303 5 268 4 q 232 2 192 0 l 192 32 l 209 32 q 258 32 273 46 q 287 60 287 114 l 287 685 l 202 685 q 120 685 85 652 q 50 620 40 535 l 15 535 l 36 718 l 631 718 l 652 535 l 627 535 q 616 620 581 653 q 546 685 465 685 l 380 685 z"},"P":{"x_min":0,"x_max":609,"ha":609,"o":"m 231 322 l 231 114 q 231 60 246 46 q 260 32 312 32 l 330 32 l 330 0 q 290 2 256 4 q 223 5 192 5 q 161 5 128 4 q 95 2 58 0 l 58 32 l 65 32 q 111 32 125 46 q 139 60 139 114 l 139 604 q 139 659 125 672 q 112 685 65 685 l 58 685 l 58 718 l 280 718 q 353 718 402 712 q 450 706 476 693 q 526 667 552 625 q 577 582 577 524 q 577 419 514 368 q 450 318 318 318 q 298 318 276 319 q 254 320 231 322 z m 231 685 l 231 355 q 233 355 237 354 q 276 351 295 351 q 391 351 436 393 q 481 434 481 523 q 481 610 437 649 q 393 688 293 688 q 279 688 263 687 q 248 687 231 685 z"},"|":{"x_min":0,"x_max":500,"ha":500,"o":"m 219 764 l 281 764 l 281 -236 l 219 -236 z"},"t":{"x_min":0,"x_max":334,"ha":334,"o":"m 166 431 l 159 166 l 159 144 q 159 85 173 64 q 187 43 222 43 q 246 43 263 55 q 280 68 292 94 l 312 86 q 298 41 265 16 q 231 -9 184 -9 q 128 -9 104 21 q 79 51 79 120 l 79 134 l 87 431 l 34 431 l 34 452 q 80 474 107 512 q 133 550 140 604 l 170 604 l 166 458 l 287 458 l 287 431 z"},"M":{"x_min":0,"x_max":907,"ha":907,"o":"m 166 143 l 166 130 q 166 68 181 50 q 197 32 243 32 l 247 32 l 247 0 q 219 2 193 4 q 167 5 143 5 q 119 5 93 4 q 67 2 38 0 l 38 32 l 44 32 q 128 32 129 141 l 129 142 l 134 604 l 134 612 q 134 658 120 672 q 106 685 60 685 l 53 685 l 53 718 q 75 716 98 715 q 122 714 150 714 q 178 714 202 715 q 227 716 250 718 l 452 150 l 655 718 q 676 716 699 715 q 723 714 750 714 q 778 714 802 715 q 827 716 849 718 l 849 685 l 842 685 q 795 685 782 672 q 768 658 768 604 l 768 114 q 768 59 782 46 q 795 32 842 32 l 849 32 l 849 0 q 815 2 783 4 q 752 5 723 5 q 694 5 662 4 q 630 2 594 0 l 594 32 l 601 32 q 647 32 661 46 q 675 60 675 114 l 675 673 l 671 673 l 434 9 l 414 9 l 178 673 l 170 673 z"},"g":{"x_min":0,"x_max":477,"ha":477,"o":"m 136 -14 q 105 -26 90 -47 q 74 -68 74 -97 q 74 -144 115 -170 q 156 -196 230 -196 q 312 -196 363 -166 q 414 -137 414 -91 q 414 -60 394 -45 q 374 -30 327 -27 q 319 -26 297 -26 q 208 -23 136 -14 z m 219 186 q 269 186 295 221 q 321 255 321 322 q 321 389 295 423 q 269 458 219 458 q 168 458 143 424 q 117 390 117 322 q 117 254 143 220 q 168 186 219 186 z m 138 176 q 88 195 65 228 q 42 261 42 311 q 42 389 90 437 q 138 485 216 485 q 260 485 294 473 q 328 461 350 438 q 372 467 397 482 q 422 498 445 498 q 464 498 474 490 q 485 481 485 466 q 485 452 476 444 q 467 436 450 436 q 439 436 427 440 q 415 443 399 452 q 389 447 380 439 q 372 431 365 421 q 379 403 387 379 q 394 354 394 323 q 394 249 354 206 q 313 164 237 158 q 224 157 200 156 q 112 151 112 108 q 112 61 271 55 l 278 55 q 396 51 436 26 q 476 0 476 -61 q 476 -132 405 -177 q 333 -223 219 -223 q 132 -223 80 -190 q 29 -158 29 -103 q 29 -68 48 -43 q 68 -18 107 -1 q 83 10 71 29 q 58 48 58 73 q 58 107 78 134 q 99 160 138 176 z"},"j":{"x_min":0,"x_max":241,"ha":241,"o":"m 166 635 q 166 616 153 602 q 139 589 120 589 q 95 589 80 602 q 65 615 65 635 q 65 656 76 670 q 87 683 106 683 q 133 683 149 670 q 166 656 166 635 z m 84 381 q 84 421 71 431 q 57 442 4 442 l -16 442 l -16 470 q 31 472 76 476 q 120 479 163 486 l 163 -17 q 163 -125 126 -173 q 89 -222 9 -222 q -42 -222 -74 -196 q -106 -169 -106 -127 q -106 -103 -96 -89 q -86 -76 -69 -76 q -53 -76 -43 -88 q -33 -101 -33 -120 q -33 -134 -38 -146 q -42 -157 -52 -168 q -49 -181 -32 -189 q -16 -197 9 -197 q 49 -197 67 -168 q 84 -139 84 -70 z"},"i":{"x_min":0,"x_max":282,"ha":282,"o":"m 185 625 q 185 605 167 587 q 148 570 126 570 q 106 570 95 581 q 84 593 84 613 q 84 632 102 650 q 121 667 141 667 q 162 667 174 656 q 185 645 185 625 z m 179 95 q 179 48 193 38 q 206 29 262 28 l 262 0 q 227 2 195 4 q 164 5 134 5 q 104 5 72 4 q 39 2 2 0 l 2 28 q 73 31 87 41 q 100 51 100 95 l 100 381 q 100 421 87 431 q 73 442 20 442 l 2 442 l 2 470 q 47 472 91 476 q 135 479 179 486 z"},"y":{"x_min":0,"x_max":451,"ha":451,"o":"m 216 10 l 64 379 l 63 381 q 38 441 -12 449 l -12 477 q 11 475 36 474 q 61 473 89 473 q 118 473 143 474 q 168 475 191 477 l 191 449 l 186 449 q 164 449 150 443 q 137 437 137 426 q 137 410 146 386 q 148 382 149 380 l 253 114 q 264 146 284 202 q 350 390 350 415 q 350 431 334 439 q 319 447 285 449 l 285 477 q 304 475 324 474 q 344 473 366 473 q 389 473 408 474 q 427 475 445 477 l 445 449 q 421 449 407 437 q 393 424 382 394 l 228 -44 q 191 -149 161 -186 q 130 -222 84 -222 q 60 -222 45 -211 q 31 -200 31 -183 q 31 -166 42 -155 q 52 -145 70 -145 q 85 -145 101 -153 q 117 -161 132 -176 q 151 -163 172 -117 q 193 -70 216 10 z"},"@":{"x_min":0,"x_max":986,"ha":986,"o":"m 581 164 q 551 112 513 87 q 476 61 430 61 q 369 61 332 106 q 295 151 295 225 q 295 278 319 331 q 343 383 386 425 q 418 456 457 474 q 495 491 532 491 q 575 491 602 467 q 629 443 640 396 l 666 484 l 736 484 l 653 186 q 653 185 652 184 q 644 155 644 133 q 644 110 656 96 q 669 83 690 83 q 707 83 729 92 q 750 100 770 115 q 830 159 861 228 q 893 297 893 382 q 893 450 869 505 q 844 560 794 604 q 750 643 688 664 q 627 685 558 685 q 467 685 391 656 q 316 628 257 571 q 193 509 161 427 q 128 346 128 247 q 128 162 156 98 q 184 35 244 -16 q 300 -63 372 -88 q 443 -112 528 -112 q 607 -112 683 -86 q 758 -61 827 -11 l 842 -29 q 770 -83 689 -110 q 608 -137 522 -137 q 431 -137 355 -115 q 279 -92 221 -47 q 147 8 109 87 q 71 166 71 262 q 71 362 113 448 q 155 535 235 601 q 299 655 377 682 q 455 709 545 709 q 714 709 815 618 q 916 526 916 374 q 916 297 888 229 q 859 161 808 114 q 780 88 748 75 q 715 61 682 61 q 635 61 609 87 q 584 112 581 164 z m 536 471 q 510 471 488 456 q 466 441 443 407 q 408 354 387 293 q 366 231 366 183 q 366 138 386 111 q 406 85 439 85 q 471 85 500 107 q 530 128 557 172 q 585 218 602 271 q 618 324 618 367 q 618 413 595 442 q 572 471 536 471 z"},".":{"x_min":0,"x_max":278,"ha":278,"o":"m 139 -5 q 118 -5 105 10 q 93 25 93 50 q 93 75 105 90 q 118 105 139 105 q 160 105 173 90 q 185 75 185 50 q 185 25 172 10 q 160 -5 139 -5 z"},"p":{"x_min":0,"x_max":552,"ha":552,"o":"m 173 -118 q 173 -164 185 -173 q 197 -183 259 -185 l 259 -213 q 225 -210 194 -209 q 163 -208 135 -208 q 108 -208 78 -209 q 48 -210 14 -213 l 14 -185 q 71 -180 83 -171 q 94 -161 94 -118 l 94 381 q 94 421 81 432 q 67 442 11 442 l 11 470 q 52 473 91 477 q 131 480 171 486 l 171 398 q 200 442 238 464 q 276 486 325 486 q 409 486 461 421 q 513 356 513 250 q 513 140 461 74 q 408 8 322 8 q 276 8 239 26 q 202 45 173 82 z m 173 348 l 173 135 q 195 91 228 67 q 261 43 299 43 q 360 43 393 100 q 426 157 426 263 q 426 352 394 402 q 362 451 304 451 q 265 451 233 426 q 201 401 173 348 z"},"X":{"x_min":0,"x_max":639,"ha":639,"o":"m 293 326 l 151 92 q 144 80 141 73 q 138 65 138 58 q 138 46 151 40 q 165 33 190 33 l 200 33 l 200 0 q 171 2 146 4 q 121 5 98 5 q 75 5 51 4 q 26 2 -3 0 l -3 33 l 4 33 q 40 33 64 48 q 88 62 113 101 l 275 356 l 114 606 q 82 657 64 671 q 47 685 26 685 l 19 685 l 19 718 q 40 717 64 717 q 89 717 139 717 q 191 717 217 717 q 244 717 267 718 l 267 685 q 234 684 220 676 q 207 668 207 651 q 207 643 210 635 q 214 626 223 612 l 344 426 l 464 626 q 471 638 474 646 q 477 653 477 660 q 477 672 464 678 q 450 685 425 685 l 415 685 l 415 718 q 438 716 464 715 q 489 714 517 714 q 546 714 571 715 q 596 716 618 718 l 618 685 l 611 685 q 576 685 552 670 q 527 655 502 616 l 362 398 l 547 112 l 550 107 q 598 32 634 32 l 641 32 l 641 0 q 591 1 564 1 q 537 2 513 2 q 490 2 463 2 q 437 1 382 0 l 382 32 l 390 32 q 424 32 439 40 q 453 48 453 66 q 453 75 449 84 q 446 94 438 106 z"},"*":{"x_min":0,"x_max":481,"ha":481,"o":"m 243 553 q 260 546 289 537 q 358 513 358 492 q 358 480 350 471 q 342 462 331 462 q 316 462 272 501 q 248 522 233 535 z m 233 585 q 247 597 271 617 q 316 657 331 657 q 342 657 350 648 q 358 640 358 628 q 358 606 283 581 q 258 572 243 567 z m 200 593 q 196 619 189 652 q 182 686 182 693 q 182 710 189 719 q 196 727 210 727 q 224 727 231 718 q 238 709 238 693 q 238 686 231 653 q 225 619 221 593 z m 177 568 q 161 574 133 583 q 62 607 62 628 q 62 640 70 649 q 79 658 89 658 q 104 658 149 618 q 173 598 187 586 z m 188 535 q 171 522 145 499 q 104 463 89 463 q 78 463 70 471 q 62 480 62 492 q 62 514 137 539 q 163 547 178 553 z m 221 528 q 225 504 231 470 q 238 436 238 427 q 238 410 231 402 q 224 393 210 393 q 196 393 189 402 q 182 410 182 427 q 182 435 189 469 q 195 503 199 528 z"},"Y":{"x_min":0,"x_max":591,"ha":591,"o":"m 454 603 q 463 621 467 632 q 471 643 471 652 q 471 670 457 678 q 443 685 407 685 l 407 718 q 429 716 452 715 q 475 714 500 714 q 526 714 548 715 q 571 716 591 718 l 591 685 q 561 683 547 676 q 533 668 520 645 l 348 337 l 348 114 q 348 60 362 46 q 376 32 426 32 l 443 32 l 443 0 q 404 2 370 4 q 335 5 303 5 q 271 5 236 4 q 202 2 161 0 l 161 32 l 178 32 q 228 32 242 46 q 256 60 256 114 l 256 327 l 84 620 l 82 625 q 56 669 36 678 q 27 682 16 683 q 5 685 -8 685 l -8 718 q 20 716 50 715 q 80 714 114 714 q 149 714 180 715 q 210 716 238 718 l 238 685 q 205 685 191 678 q 178 671 178 655 q 178 650 179 646 q 180 642 182 639 l 331 374 z"},"c":{"x_min":0,"x_max":493,"ha":493,"o":"m 457 134 q 437 64 385 26 q 333 -12 257 -12 q 158 -12 98 52 q 39 115 39 223 q 39 342 105 416 q 172 490 277 490 q 347 490 395 452 q 442 415 442 360 q 442 338 432 326 q 422 313 405 313 q 387 313 377 327 q 367 341 367 367 q 367 379 370 392 q 374 404 380 417 q 365 438 340 449 q 314 460 280 460 q 210 460 167 397 q 124 335 124 232 q 124 139 166 89 q 208 38 285 38 q 338 38 377 65 q 417 92 436 142 z"},"!":{"x_min":0,"x_max":356,"ha":356,"o":"m 179 -5 q 157 -5 141 10 q 126 26 126 48 q 126 68 142 83 q 158 99 179 99 q 200 99 215 84 q 230 68 230 48 q 230 25 216 10 q 201 -5 179 -5 z m 163 153 q 160 299 144 463 q 129 627 129 648 q 129 689 141 708 q 152 727 177 727 q 202 727 213 708 q 225 688 225 648 q 225 626 210 462 q 194 297 191 153 z"},"/":{"x_min":0,"x_max":296,"ha":296,"o":"m -39 -93 l 259 727 l 309 727 l 11 -93 z"},"[":{"x_min":0,"x_max":310,"ha":310,"o":"m 170 -137 l 180 -137 q 204 -137 225 -140 q 247 -144 266 -150 l 266 -178 q 248 -171 226 -167 q 205 -164 180 -164 q 161 -164 145 -167 q 128 -169 114 -175 l 114 733 q 128 728 145 725 q 161 722 180 722 q 205 722 226 726 q 248 729 266 736 l 266 708 q 247 702 225 698 q 204 695 180 695 l 170 695 z"},"6":{"x_min":0,"x_max":556,"ha":556,"o":"m 133 304 q 132 296 132 287 q 132 278 132 260 q 132 141 171 82 q 209 23 288 23 q 357 23 396 73 q 435 123 435 213 q 435 299 398 347 q 361 395 295 395 q 250 395 209 372 q 169 350 133 304 z m 135 345 q 176 388 218 407 q 261 427 311 427 q 402 427 457 370 q 512 312 512 218 q 512 118 448 55 q 384 -9 284 -9 q 171 -9 108 75 q 46 158 46 310 q 46 493 120 601 q 194 709 317 709 q 387 709 440 667 q 492 625 492 573 q 492 552 484 541 q 476 529 461 529 q 443 529 434 543 q 424 558 424 584 q 424 595 425 606 q 427 618 430 630 q 414 652 386 665 q 358 677 323 677 q 230 677 184 595 q 138 514 135 345 z"},"r":{"x_min":0,"x_max":400,"ha":400,"o":"m 176 95 q 176 53 193 41 q 211 29 289 28 l 289 0 q 247 2 213 4 q 178 5 148 5 q 117 5 85 4 q 52 2 17 0 l 17 28 q 73 32 86 42 q 98 52 98 95 l 98 381 q 98 421 84 432 q 71 442 15 442 l 15 470 q 55 472 94 476 q 133 480 174 486 l 174 353 q 201 419 234 453 q 268 486 308 486 q 339 486 359 465 q 379 444 379 412 q 379 389 368 375 q 357 362 339 362 q 320 362 310 374 q 300 386 300 408 q 300 418 302 431 q 304 443 307 456 l 303 456 q 253 456 215 387 q 176 317 176 222 z"},"2":{"x_min":0,"x_max":556,"ha":556,"o":"m 40 -4 l 35 2 q 67 78 187 179 q 201 191 208 197 q 308 282 344 348 q 381 415 381 498 q 381 578 338 624 q 295 670 222 670 q 153 670 109 628 q 64 586 64 523 q 64 498 73 484 q 81 471 98 470 q 108 478 119 481 q 129 485 141 485 q 162 485 174 475 q 186 464 186 447 q 186 429 171 418 q 157 407 131 407 q 86 407 58 438 q 31 469 31 520 q 31 605 88 656 q 146 708 242 708 q 341 708 404 650 q 467 593 467 502 q 467 427 423 356 q 378 285 285 210 q 266 195 229 167 q 132 96 108 52 q 145 63 185 69 q 226 75 269 75 q 313 75 361 70 q 409 65 411 65 q 443 65 457 86 q 470 106 481 186 l 510 186 q 504 146 497 97 q 490 49 483 -9 q 465 -13 449 -14 q 433 -16 418 -16 q 381 -16 291 -5 q 201 6 148 6 q 121 6 94 3 q 66 1 40 -4 z"},"{":{"x_min":0,"x_max":500,"ha":500,"o":"m 413 740 l 413 715 q 344 714 318 688 q 293 662 293 586 l 293 516 q 293 406 263 365 q 233 325 153 310 q 233 295 263 255 q 293 214 293 104 l 293 34 q 293 -42 318 -68 q 343 -93 413 -94 l 413 -119 l 408 -119 q 302 -119 263 -83 q 223 -47 223 50 l 223 154 q 223 231 194 260 q 166 290 86 296 l 86 325 q 167 333 195 361 q 223 390 223 467 l 223 571 q 223 668 263 704 q 302 740 408 740 z"},"9":{"x_min":0,"x_max":556,"ha":556,"o":"m 410 344 q 411 356 411 369 q 411 382 411 407 q 411 546 377 611 q 342 676 269 676 q 201 676 164 625 q 126 574 126 481 q 126 387 163 335 q 201 283 268 283 q 303 283 338 298 q 374 313 410 344 z m 410 310 q 368 277 326 261 q 285 245 242 245 q 152 245 99 305 q 46 365 46 468 q 46 575 107 641 q 169 708 266 708 q 379 708 441 616 q 503 524 503 355 q 503 187 428 89 q 354 -10 228 -10 q 152 -10 101 33 q 49 77 49 138 q 49 158 58 170 q 66 182 81 182 q 98 182 108 167 q 118 152 118 126 q 118 118 117 106 q 115 95 112 81 q 127 53 157 37 q 187 22 227 22 q 317 22 363 94 q 409 167 410 310 z"}," ":{"x_min":0,"x_max":278,"ha":278,"o":""},"I":{"x_min":0,"x_max":370,"ha":370,"o":"m 317 718 l 317 685 l 309 685 q 260 685 245 672 q 231 658 231 604 l 231 114 q 231 59 245 46 q 260 32 309 32 l 317 32 l 317 0 q 281 2 249 4 q 217 5 187 5 q 157 5 124 4 q 91 2 53 0 l 53 32 l 61 32 q 110 32 125 46 q 139 59 139 114 l 139 604 q 139 658 125 672 q 110 685 61 685 l 53 685 l 53 718 q 83 716 115 715 q 147 714 184 714 q 222 714 255 715 q 288 716 317 718 z"},"H":{"x_min":0,"x_max":817,"ha":817,"o":"m 231 398 l 586 398 l 586 604 q 586 658 572 672 q 559 685 512 685 l 505 685 l 505 718 q 534 716 564 715 q 595 714 631 714 q 667 714 698 715 q 730 716 759 718 l 759 685 l 752 685 q 705 685 692 672 q 678 658 678 604 l 678 114 q 678 59 692 46 q 706 32 752 32 l 759 32 l 759 0 q 725 2 694 4 q 663 5 633 5 q 604 5 573 4 q 541 2 505 0 l 505 32 l 512 32 q 558 32 572 46 q 586 60 586 114 l 586 365 l 231 365 l 231 114 q 231 60 245 46 q 259 32 305 32 l 312 32 l 312 0 q 278 2 247 4 q 216 5 187 5 q 158 5 127 4 q 96 2 58 0 l 58 32 l 65 32 q 111 32 125 46 q 139 60 139 114 l 139 604 q 139 659 125 672 q 112 685 65 685 l 58 685 l 58 718 q 86 716 117 715 q 148 714 184 714 q 220 714 251 715 q 283 716 312 718 l 312 685 l 305 685 q 258 685 245 671 q 231 657 231 604 z"},"4":{"x_min":0,"x_max":556,"ha":556,"o":"m 335 250 l 335 640 l 87 278 q 83 271 82 267 q 80 262 80 255 l 80 250 z m 329 211 l 34 211 l 34 243 q 34 249 39 259 q 43 269 54 284 l 329 685 q 348 688 369 693 q 390 698 414 706 l 414 256 l 499 256 l 499 211 l 414 211 l 414 88 q 414 45 423 37 q 432 28 466 28 l 475 28 l 475 0 q 455 1 431 1 q 407 2 359 2 q 311 2 286 1 q 261 1 240 0 l 240 28 l 252 28 q 301 28 315 40 q 329 51 329 91 z"},"~":{"x_min":0,"x_max":833,"ha":833,"o":"m 747 370 l 747 306 q 698 271 651 253 q 604 236 558 236 q 537 236 514 240 q 491 245 465 253 q 450 258 422 268 q 324 303 275 303 q 234 303 190 285 q 146 267 87 225 l 87 290 q 138 326 186 343 q 233 361 276 361 q 303 361 333 355 q 362 349 418 329 q 424 327 435 323 q 515 294 559 294 q 601 294 645 312 q 689 330 747 370 z"},"D":{"x_min":0,"x_max":766,"ha":766,"o":"m 58 0 l 58 32 l 65 32 q 111 32 125 46 q 139 60 139 114 l 139 604 q 139 659 125 672 q 112 685 65 685 l 58 685 l 58 718 l 302 718 q 506 718 613 626 q 719 534 719 357 q 719 247 676 166 q 633 85 551 42 q 508 20 455 10 q 402 0 305 0 z m 231 32 l 309 32 q 388 32 431 42 q 474 53 507 77 q 560 115 586 187 q 612 259 612 364 q 612 454 592 515 q 572 577 529 620 q 495 655 443 670 q 392 685 297 685 l 231 685 z"},"^":{"x_min":0,"x_max":1000,"ha":1000,"o":"m 456 714 l 543 714 l 797 438 l 752 438 l 499 651 l 245 438 l 201 438 z"},"0":{"x_min":0,"x_max":556,"ha":556,"o":"m 272 22 q 343 22 383 116 q 424 209 424 375 q 424 521 387 600 q 351 678 283 678 q 213 678 172 583 q 131 488 131 323 q 131 179 168 100 q 205 22 272 22 z m 275 -9 q 168 -9 106 83 q 44 175 44 336 q 44 509 107 609 q 171 708 280 708 q 387 708 450 616 q 512 524 512 363 q 512 190 448 91 q 384 -9 275 -9 z"},"F":{"x_min":0,"x_max":617,"ha":617,"o":"m 231 386 l 309 386 q 379 386 398 407 q 417 428 420 499 l 444 499 q 442 464 442 428 q 441 392 441 357 q 441 322 442 287 q 442 252 444 218 l 420 218 q 417 304 398 329 q 379 353 309 353 l 231 353 l 231 114 q 231 60 245 46 q 260 32 309 32 l 326 32 l 326 0 l 58 0 l 58 32 l 65 32 q 111 32 125 46 q 139 60 139 114 l 139 604 q 139 659 125 672 q 112 685 65 685 l 58 685 l 58 718 l 590 718 l 590 675 q 590 638 592 548 q 592 538 592 533 l 567 533 q 566 620 529 652 q 491 685 386 685 l 231 685 z"},"`":{"x_min":0,"x_max":500,"ha":500,"o":"m 201 687 l 336 540 l 300 540 l 153 630 q 128 646 120 656 q 112 666 112 678 q 112 694 123 705 q 134 717 149 717 q 161 717 175 709 q 188 702 201 687 z"},"k":{"x_min":0,"x_max":514,"ha":514,"o":"m 172 95 q 172 49 182 40 q 193 31 231 28 l 231 0 q 202 2 175 4 q 149 5 124 5 q 99 5 73 4 q 46 2 13 0 l 13 28 q 68 32 81 42 q 93 51 93 95 l 93 638 q 93 677 80 688 q 67 699 21 699 l 21 727 q 64 730 101 734 q 138 738 172 743 l 172 227 l 334 388 q 343 397 349 409 q 355 420 355 427 q 355 437 346 443 q 336 449 321 449 l 315 449 l 315 477 q 334 475 355 474 q 376 473 401 473 q 426 473 447 474 q 468 475 488 477 l 488 449 l 478 449 q 457 449 440 443 q 423 436 409 422 l 259 277 l 430 87 q 459 54 481 41 q 503 28 527 28 l 530 28 l 530 0 q 502 2 477 4 q 452 5 429 5 q 406 5 380 4 q 354 2 324 0 l 324 28 q 342 29 349 33 q 357 37 357 46 q 357 50 355 54 q 353 59 347 65 l 207 226 l 172 192 z"},"u":{"x_min":0,"x_max":602,"ha":602,"o":"m 93 381 q 93 420 80 431 q 67 441 21 442 l 21 471 q 58 473 95 478 q 133 482 171 490 l 171 157 q 171 90 195 62 q 219 35 277 35 q 334 35 375 62 q 416 90 420 131 l 420 381 q 420 420 407 431 q 394 441 348 442 l 348 471 q 385 473 423 478 q 461 482 499 490 l 499 96 q 499 50 510 41 q 520 31 558 28 l 558 0 q 540 1 523 2 q 506 3 489 3 q 472 3 456 2 q 439 1 423 0 l 423 71 q 392 30 348 11 q 304 -9 243 -9 q 162 -9 127 31 q 93 72 93 170 z"},"]":{"x_min":0,"x_max":310,"ha":310,"o":"m 142 695 l 132 695 q 108 695 87 698 q 65 702 46 708 l 46 736 q 64 729 86 726 q 107 722 132 722 q 151 722 167 725 q 183 728 198 733 l 198 -175 q 183 -169 167 -167 q 150 -164 132 -164 q 107 -164 86 -167 q 64 -171 46 -178 l 46 -150 q 65 -144 87 -140 q 108 -137 132 -137 l 142 -137 z"},"U":{"x_min":0,"x_max":796,"ha":796,"o":"m 628 572 q 628 648 614 667 q 599 685 555 685 l 547 685 l 547 718 q 571 716 596 715 q 621 714 649 714 q 678 714 702 715 q 727 716 749 718 l 749 685 l 741 685 q 697 685 682 667 q 668 649 668 572 l 668 328 q 668 224 661 180 q 653 136 636 102 q 608 47 545 19 q 482 -9 389 -9 q 309 -9 254 12 q 200 33 170 76 q 150 104 141 142 q 133 180 133 265 l 133 277 l 133 604 q 133 659 119 672 q 106 685 59 685 l 52 685 l 52 718 q 81 716 111 715 q 142 714 178 714 q 214 714 246 715 q 278 716 307 718 l 307 685 l 300 685 q 253 685 240 671 q 226 657 226 604 l 226 268 q 226 204 232 172 q 238 141 251 115 q 271 77 316 57 q 361 37 428 37 q 540 37 584 92 q 628 147 628 294 z"},"o":{"x_min":0,"x_max":519,"ha":519,"o":"m 255 459 q 194 459 161 398 q 127 337 127 228 q 127 128 160 73 q 193 17 252 17 q 312 17 346 76 q 381 135 381 238 q 381 343 348 401 q 315 459 255 459 z m 39 230 q 39 347 100 416 q 162 486 263 486 q 357 486 414 421 q 470 356 470 246 q 470 130 408 61 q 347 -9 245 -9 q 150 -9 95 56 q 39 120 39 230 z"},"N":{"x_min":0,"x_max":787,"ha":787,"o":"m 166 646 l 166 143 q 166 67 181 50 q 196 32 244 32 l 259 32 l 259 0 q 228 2 201 4 q 174 5 149 5 q 124 5 97 4 q 69 2 38 0 l 38 32 l 44 32 q 97 32 113 49 q 129 65 129 142 l 129 604 q 129 658 115 671 q 101 685 51 685 l 33 685 l 33 718 q 56 716 81 715 q 105 714 132 714 q 160 714 184 715 q 207 716 228 718 l 633 174 l 633 574 q 633 649 618 667 q 603 685 554 685 l 539 685 l 539 718 q 565 716 592 715 q 619 714 649 714 q 680 714 705 715 q 731 716 754 718 l 754 685 q 702 684 686 668 q 670 652 670 575 l 670 0 l 646 0 z"},"+":{"x_min":0,"x_max":833,"ha":833,"o":"m 388 596 l 446 596 l 446 327 l 709 327 l 709 270 l 446 270 l 446 0 l 388 0 l 388 270 l 124 270 l 124 327 l 388 327 z"},"G":{"x_min":0,"x_max":725,"ha":725,"o":"m 638 41 l 622 41 l 599 64 q 542 27 486 9 q 430 -9 369 -9 q 221 -9 133 87 q 46 184 46 347 q 46 519 138 623 q 231 727 383 727 q 439 727 491 711 q 542 695 592 663 l 603 713 l 628 713 q 625 673 624 639 q 623 605 623 573 q 623 559 623 542 q 624 525 625 490 l 600 490 q 596 586 539 640 q 482 695 386 695 q 273 695 213 608 q 153 522 153 359 q 153 195 216 110 q 279 24 399 24 q 478 24 513 52 q 548 80 548 141 q 548 194 543 210 q 539 225 528 232 q 505 246 416 248 q 412 248 409 248 l 409 280 q 441 278 477 277 q 512 276 552 276 q 593 276 628 277 q 663 278 695 280 l 695 248 q 662 248 650 232 q 638 216 638 166 z"},"q":{"x_min":0,"x_max":542,"ha":542,"o":"m 458 486 l 458 -118 q 458 -158 467 -168 q 475 -179 501 -185 l 501 -213 q 475 -210 450 -209 q 426 -208 402 -208 q 379 -208 352 -209 q 326 -210 293 -213 l 293 -185 q 354 -183 367 -173 q 379 -164 379 -118 l 379 64 q 347 37 312 24 q 276 11 235 11 q 146 11 94 71 q 43 131 43 237 q 43 352 101 419 q 158 486 256 486 q 296 486 332 471 q 367 456 402 424 l 440 486 z m 379 107 l 379 397 q 359 426 332 440 q 304 455 270 455 q 201 455 164 401 q 128 347 128 245 q 128 148 162 99 q 196 50 264 50 q 299 50 327 64 q 355 78 379 107 z"},"d":{"x_min":0,"x_max":562,"ha":562,"o":"m 382 91 l 382 393 q 359 424 331 440 q 303 455 270 455 q 201 455 165 398 q 128 341 128 233 q 128 130 162 79 q 196 28 264 28 q 300 28 328 43 q 357 59 382 91 z m 383 638 q 383 678 369 689 q 356 699 300 699 l 300 727 q 342 729 382 733 q 421 737 461 743 l 461 96 q 461 57 472 47 q 484 37 524 35 l 524 7 q 476 2 444 -2 q 413 -5 385 -9 l 385 52 q 353 21 315 6 q 278 -9 235 -9 q 146 -9 94 54 q 43 116 43 226 q 43 345 101 416 q 159 486 256 486 q 292 486 323 474 q 354 462 383 436 z"},"1":{"x_min":0,"x_max":556,"ha":556,"o":"m 119 0 l 119 30 l 147 30 q 215 30 229 42 q 244 55 244 109 l 244 635 l 119 604 l 119 637 q 170 649 222 667 q 274 685 328 708 l 328 109 q 328 56 342 43 q 356 30 407 30 l 425 30 l 425 0 q 382 2 344 4 q 307 5 272 5 q 237 5 200 4 q 162 2 119 0 z"},"5":{"x_min":0,"x_max":556,"ha":556,"o":"m 106 103 q 120 67 156 46 q 193 26 243 26 q 321 26 369 82 q 417 138 417 230 q 417 314 373 363 q 328 412 252 412 q 209 412 170 394 q 130 376 87 337 l 67 356 q 75 433 83 520 q 92 607 100 706 l 130 703 q 350 683 382 683 q 411 683 432 690 q 454 696 475 712 l 487 699 q 453 652 418 634 q 384 615 331 615 q 308 615 259 619 q 210 623 126 632 q 117 578 111 516 q 105 454 101 383 q 135 417 179 433 q 223 450 276 450 q 378 450 439 391 q 500 331 500 231 q 500 121 432 56 q 364 -9 249 -9 q 163 -9 106 36 q 49 81 49 146 q 49 178 61 198 q 73 217 93 217 q 109 217 118 206 q 127 194 127 174 q 127 161 122 143 q 116 125 106 103 z"}}}
